<svg width="42" height="46" viewBox="0 0 42 46" fill="none" xmlns="http://www.w3.org/2000/svg">
<path fill-rule="evenodd" clip-rule="evenodd" d="M13.4716 34.4575C14.4134 34.9611 15.5541 34.2818 15.5541 33.2174V23.7699C15.5541 22.6038 14.6048 21.6585 13.4337 21.6585H9.89512C8.72405 21.6585 7.77472 22.6038 7.77472 23.7699V30.5688C7.77472 31.0871 8.06083 31.5635 8.51943 31.8087L13.4716 34.4575Z" fill="#E73369"/>
<path d="M24.2424 35.8148C24.6934 35.5673 24.9735 35.095 24.9735 34.5822V13.9759C24.9735 12.8099 24.0243 11.8646 22.8531 11.8646H19.3191C18.148 11.8646 17.1987 12.8099 17.1987 13.9759V36.1505C17.1987 36.3177 17.2901 36.4721 17.4374 36.5528C19.1371 37.4862 21.1988 37.4862 22.8985 36.5528L24.2424 35.8148Z" fill="#F2B926"/>
<path d="M34.0284 30.5995C34.2475 30.3689 34.3507 30.0562 34.3507 29.7386V18.1989C34.3507 17.0328 33.4015 16.0876 32.2303 16.0876H28.7432C27.572 16.0876 26.6228 17.0328 26.6228 18.1989V32.6865C26.6228 33.7696 27.8001 34.4469 28.7425 33.9057L32.7458 31.6071C33.2269 31.3308 33.6571 30.9901 34.0284 30.5995Z" fill="#59BC49"/>
<path fill-rule="evenodd" clip-rule="evenodd" d="M16.0034 44.4979L4.69464 37.9647C1.78863 36.2859 0 33.1935 0 29.8482V16.756C0 13.4106 1.78863 10.3183 4.69464 8.63945L16.0034 2.10618C18.928 0.416591 22.5376 0.416593 25.4622 2.10618L36.7711 8.63945C39.6769 10.3183 41.4656 13.4106 41.4656 16.756V29.8482C41.4656 33.1935 39.6769 36.2859 36.7711 37.9647L25.4622 44.4979C22.5376 46.1876 18.928 46.1876 16.0034 44.4979ZM23.5704 5.35281L34.8792 11.8861C36.6229 12.8934 37.696 14.7488 37.696 16.756V29.8482C37.696 31.8554 36.6229 33.7108 34.8792 34.7181L23.5704 41.2513C21.8157 42.265 19.6499 42.265 17.8952 41.2513L6.58639 34.7181C4.84278 33.7108 3.7696 31.8554 3.7696 29.8482V16.756C3.7696 14.7488 4.84278 12.8934 6.58639 11.8861L17.8952 5.35281C19.6499 4.33906 21.8157 4.33906 23.5704 5.35281Z" fill="white"/>
</svg>
