<svg width="40" height="40" viewBox="0 0 40 40" fill="none" xmlns="http://www.w3.org/2000/svg">
<rect width="40" height="40" rx="20" fill="#FBE8F2"/>
<path d="M20 21.85C19.87 21.85 19.74 21.82 19.63 21.75C19.27 21.54 19.15 21.08 19.35 20.73L20.2 19.25H19.36C18.86 19.25 18.45 19.03 18.23 18.66C18.01 18.28 18.03 17.82 18.28 17.38L19.35 15.52C19.56 15.16 20.02 15.04 20.37 15.24C20.73 15.45 20.85 15.91 20.65 16.26L19.8 17.75H20.64C21.14 17.75 21.55 17.97 21.77 18.34C21.99 18.72 21.97 19.18 21.72 19.62L20.65 21.48C20.51 21.72 20.26 21.85 20 21.85Z" fill="#4B586E"/>
<path d="M22.77 27.75H17.26C16.82 27.75 16.26 27.7 15.89 27.32C15.53 26.95 15.54 26.49 15.55 26.18V25.29C13.03 23.61 11.37 20.69 11.37 17.91C11.37 15.28 12.55 12.82 14.6 11.17C16.65 9.52005 19.34 8.90005 21.97 9.48005C24.47 10.03 26.63 11.7 27.75 13.95C29.92 18.32 27.83 23.05 24.49 25.3V26.05C24.5 26.34 24.51 26.87 24.1 27.29C23.79 27.59 23.35 27.75 22.77 27.75ZM17.04 26.24C17.09 26.24 17.16 26.25 17.25 26.25H22.77C22.87 26.25 22.94 26.24 22.98 26.23C22.98 26.2 22.98 26.16 22.98 26.13V24.87C22.98 24.61 23.12 24.36 23.34 24.23C26.3 22.44 28.26 18.35 26.39 14.6C25.47 12.75 23.69 11.38 21.63 10.93C19.45 10.45 17.22 10.96 15.52 12.33C13.82 13.7 12.85 15.73 12.85 17.91C12.85 20.69 14.77 23.09 16.67 24.24C16.9 24.38 17.03 24.62 17.03 24.88V26.23C17.04 26.23 17.04 26.23 17.04 26.24Z" fill="#4B586E"/>
<path d="M23.5 30.7499C23.43 30.7499 23.36 30.7399 23.29 30.7199C21.13 30.0999 18.86 30.0999 16.7 30.7199C16.3 30.8299 15.89 30.5999 15.77 30.1999C15.65 29.7999 15.89 29.3899 16.29 29.2699C18.71 28.5799 21.28 28.5799 23.7 29.2699C24.1 29.3799 24.33 29.7999 24.22 30.1999C24.13 30.5399 23.83 30.7499 23.5 30.7499Z" fill="#4B586E"/>
</svg>
