<svg width="40" height="40" viewBox="0 0 40 40" fill="none" xmlns="http://www.w3.org/2000/svg">
<rect width="40" height="40" rx="20" fill="#111928"/>
<path d="M19.9999 21.8499C19.8699 21.8499 19.7399 21.8199 19.6299 21.7499C19.2699 21.5399 19.1499 21.0799 19.3499 20.7299L20.1999 19.2499H19.3599C18.8599 19.2499 18.4499 19.0299 18.2299 18.6599C18.0099 18.2799 18.0299 17.8199 18.2799 17.3799L19.3499 15.5199C19.5599 15.1599 20.0199 15.0399 20.3699 15.2399C20.7299 15.4499 20.8499 15.9099 20.6499 16.2599L19.7999 17.7499H20.6399C21.1399 17.7499 21.5499 17.9699 21.7699 18.3399C21.9899 18.7199 21.9699 19.1799 21.7199 19.6199L20.6499 21.4799C20.5099 21.7199 20.2599 21.8499 19.9999 21.8499Z" fill="#E5E7EB"/>
<path d="M22.7701 27.7498H17.2601C16.8201 27.7498 16.2601 27.6998 15.8901 27.3198C15.5301 26.9498 15.5401 26.4898 15.5501 26.1798V25.2898C13.0301 23.6098 11.3701 20.6898 11.3701 17.9098C11.3701 15.2798 12.5501 12.8198 14.6001 11.1698C16.6501 9.5198 19.3401 8.8998 21.9701 9.4798C24.4701 10.0298 26.6301 11.6998 27.7501 13.9498C29.9201 18.3198 27.8301 23.0498 24.4901 25.2998V26.0498C24.5001 26.3398 24.5101 26.8698 24.1001 27.2898C23.7901 27.5898 23.3501 27.7498 22.7701 27.7498ZM17.0401 26.2398C17.0901 26.2398 17.1601 26.2498 17.2501 26.2498H22.7701C22.8701 26.2498 22.9401 26.2398 22.9801 26.2298C22.9801 26.1998 22.9801 26.1598 22.9801 26.1298V24.8698C22.9801 24.6098 23.1201 24.3598 23.3401 24.2298C26.3001 22.4398 28.2601 18.3498 26.3901 14.5998C25.4701 12.7498 23.6901 11.3798 21.6301 10.9298C19.4501 10.4498 17.2201 10.9598 15.5201 12.3298C13.8201 13.6998 12.8501 15.7298 12.8501 17.9098C12.8501 20.6898 14.7701 23.0898 16.6701 24.2398C16.9001 24.3798 17.0301 24.6198 17.0301 24.8798V26.2298C17.0401 26.2298 17.0401 26.2298 17.0401 26.2398Z" fill="#E5E7EB"/>
<path d="M23.4998 30.7499C23.4298 30.7499 23.3598 30.7399 23.2898 30.7199C21.1298 30.0999 18.8598 30.0999 16.6998 30.7199C16.2998 30.8299 15.8898 30.5999 15.7698 30.1999C15.6498 29.7999 15.8898 29.3899 16.2898 29.2699C18.7098 28.5799 21.2798 28.5799 23.6998 29.2699C24.0998 29.3799 24.3298 29.7999 24.2198 30.1999C24.1298 30.5399 23.8298 30.7499 23.4998 30.7499Z" fill="#E5E7EB"/>
</svg>
