<svg width="40" height="40" viewBox="0 0 40 40" fill="none" xmlns="http://www.w3.org/2000/svg">
<rect width="40" height="40" rx="20" fill="#111928"/>
<path d="M16 13.75C15.59 13.75 15.25 13.41 15.25 13V10C15.25 9.59 15.59 9.25 16 9.25C16.41 9.25 16.75 9.59 16.75 10V13C16.75 13.41 16.41 13.75 16 13.75Z" fill="#E5E7EB"/>
<path d="M24 13.75C23.59 13.75 23.25 13.41 23.25 13V10C23.25 9.59 23.59 9.25 24 9.25C24.41 9.25 24.75 9.59 24.75 10V13C24.75 13.41 24.41 13.75 24 13.75Z" fill="#E5E7EB"/>
<path d="M28.5 17.8398H11.5C11.09 17.8398 10.75 17.4998 10.75 17.0898C10.75 16.6798 11.09 16.3398 11.5 16.3398H28.5C28.91 16.3398 29.25 16.6798 29.25 17.0898C29.25 17.4998 28.91 17.8398 28.5 17.8398Z" fill="#E5E7EB"/>
<path d="M24 30.75H16C12.35 30.75 10.25 28.65 10.25 25V16.5C10.25 12.85 12.35 10.75 16 10.75H24C27.65 10.75 29.75 12.85 29.75 16.5V25C29.75 28.65 27.65 30.75 24 30.75ZM16 12.25C13.14 12.25 11.75 13.64 11.75 16.5V25C11.75 27.86 13.14 29.25 16 29.25H24C26.86 29.25 28.25 27.86 28.25 25V16.5C28.25 13.64 26.86 12.25 24 12.25H16Z" fill="#E5E7EB"/>
<path d="M16.5 22.5C16.37 22.5 16.24 22.47 16.12 22.42C16 22.37 15.89 22.3 15.79 22.21C15.7 22.11 15.63 22 15.58 21.88C15.53 21.76 15.5 21.63 15.5 21.5C15.5 21.24 15.61 20.98 15.79 20.79C15.89 20.7 16 20.63 16.12 20.58C16.3 20.5 16.5 20.48 16.7 20.52C16.76 20.53 16.82 20.55 16.88 20.58C16.94 20.6 17 20.63 17.06 20.67C17.11 20.71 17.16 20.75 17.21 20.79C17.25 20.84 17.3 20.89 17.33 20.94C17.37 21 17.4 21.06 17.42 21.12C17.45 21.18 17.47 21.24 17.48 21.3C17.49 21.37 17.5 21.43 17.5 21.5C17.5 21.76 17.39 22.02 17.21 22.21C17.02 22.39 16.76 22.5 16.5 22.5Z" fill="#E5E7EB"/>
<path d="M20 22.4999C19.74 22.4999 19.48 22.3899 19.29 22.2099C19.25 22.1599 19.21 22.1099 19.17 22.0599C19.13 21.9999 19.1 21.9399 19.08 21.8799C19.05 21.8199 19.03 21.7599 19.02 21.6999C19.01 21.6299 19 21.5699 19 21.4999C19 21.3699 19.03 21.2399 19.08 21.1199C19.13 20.9999 19.2 20.8899 19.29 20.7899C19.57 20.5099 20.02 20.4199 20.38 20.5799C20.51 20.6299 20.61 20.6999 20.71 20.7899C20.89 20.9799 21 21.2399 21 21.4999C21 21.5699 20.99 21.6299 20.98 21.6999C20.97 21.7599 20.95 21.8199 20.92 21.8799C20.9 21.9399 20.87 21.9999 20.83 22.0599C20.79 22.1099 20.75 22.1599 20.71 22.2099C20.61 22.2999 20.51 22.3699 20.38 22.4199C20.26 22.4699 20.13 22.4999 20 22.4999Z" fill="#E5E7EB"/>
<path d="M16.5 25.9999C16.37 25.9999 16.24 25.9699 16.12 25.9199C16 25.8699 15.89 25.7999 15.79 25.7099C15.7 25.6099 15.63 25.5099 15.58 25.3799C15.53 25.2599 15.5 25.1299 15.5 24.9999C15.5 24.7399 15.61 24.4799 15.79 24.2899C15.89 24.1999 16 24.1299 16.12 24.0799C16.49 23.9199 16.93 24.0099 17.21 24.2899C17.25 24.3399 17.3 24.3899 17.33 24.4399C17.37 24.4999 17.4 24.5599 17.42 24.6199C17.45 24.6799 17.47 24.7399 17.48 24.8099C17.49 24.8699 17.5 24.9399 17.5 24.9999C17.5 25.2599 17.39 25.5199 17.21 25.7099C17.02 25.8899 16.76 25.9999 16.5 25.9999Z" fill="#E5E7EB"/>
</svg>
