<svg width="205" height="46" viewBox="0 0 205 46" fill="none" xmlns="http://www.w3.org/2000/svg">
<g id="logo" clip-path="url(#clip0_839_10731)">
<path id="Vector" d="M51.5357 35.1814C51.052 35.1814 50.6451 35.0282 50.3153 34.7216C50.0074 34.3932 49.8535 33.988 49.8535 33.5064V18.8583C49.8535 18.3548 50.0074 17.9497 50.3153 17.6431C50.6451 17.3366 51.052 17.1833 51.5357 17.1833C52.0415 17.1833 52.4482 17.3366 52.7561 17.6431C53.064 17.9497 53.2179 18.3548 53.2179 18.8583V19.2196C53.8995 18.5409 54.7241 18.0044 55.6917 17.6103C56.6593 17.2162 57.7037 17.0191 58.8252 17.0191C60.3424 17.0191 61.6948 17.3476 62.8822 18.0044C64.0915 18.6394 65.0372 19.5809 65.7188 20.8289C66.4226 22.077 66.7743 23.6097 66.7743 25.427V33.5064C66.7743 33.988 66.6094 34.3932 66.2796 34.7216C65.9716 35.0282 65.5758 35.1814 65.0921 35.1814C64.6084 35.1814 64.2016 35.0282 63.8717 34.7216C63.5638 34.3932 63.41 33.988 63.41 33.5064V25.427C63.41 23.5659 62.9041 22.2083 61.8927 21.3544C60.9032 20.4786 59.6608 20.0407 58.1655 20.0407C57.2419 20.0407 56.4063 20.2268 55.6587 20.599C54.9111 20.9713 54.3174 21.4749 53.8776 22.1098C53.4377 22.7229 53.2179 23.4345 53.2179 24.2446V33.5064C53.2179 33.988 53.064 34.3932 52.7561 34.7216C52.4482 35.0282 52.0415 35.1814 51.5357 35.1814ZM51.5357 28.6128C51.052 28.6128 50.6451 28.4596 50.3153 28.153C50.0074 27.8245 49.8535 27.4194 49.8535 26.9378V11.173C49.8535 10.6695 50.0074 10.2644 50.3153 9.95785C50.6451 9.65133 51.052 9.49805 51.5357 9.49805C52.0415 9.49805 52.4482 9.65133 52.7561 9.95785C53.064 10.2644 53.2179 10.6695 53.2179 11.173V26.9378C53.2179 27.4194 53.064 27.8245 52.7561 28.153C52.4482 28.4596 52.0415 28.6128 51.5357 28.6128ZM79.5264 35.2799C77.7015 35.2799 76.0742 34.8968 74.6448 34.1304C73.2375 33.3422 72.1272 32.2694 71.3134 30.9118C70.5218 29.5324 70.126 27.9559 70.126 26.1824C70.126 24.387 70.4999 22.8105 71.2474 21.453C72.0171 20.0735 73.0726 19.0007 74.4139 18.2343C75.7554 17.4461 77.2946 17.052 79.0317 17.052C80.7468 17.052 82.2203 17.4352 83.4515 18.2015C84.683 18.9459 85.6176 19.986 86.2551 21.3216C86.9148 22.6353 87.2447 24.157 87.2447 25.8868C87.2447 26.3027 87.1019 26.6532 86.8159 26.9378C86.5301 27.2005 86.1673 27.3319 85.7274 27.3319H73.1935C73.4354 28.8427 74.1281 30.0797 75.2715 31.0432C76.437 31.9846 77.8553 32.4554 79.5264 32.4554C80.2082 32.4554 80.9009 32.3351 81.6044 32.0942C82.3301 31.8314 82.9129 31.5358 83.3526 31.2074C83.6824 30.9665 84.0344 30.8461 84.408 30.8461C84.8039 30.8243 85.1448 30.9336 85.4305 31.1745C85.8044 31.503 86.0024 31.8642 86.0243 32.2584C86.0464 32.6525 85.8704 32.9919 85.4965 33.2765C84.749 33.8677 83.8143 34.3493 82.6929 34.7216C81.5936 35.0939 80.5381 35.2799 79.5264 35.2799ZM79.0317 19.8765C77.4046 19.8765 76.0961 20.3254 75.1066 21.223C74.117 22.1208 73.4903 23.2812 73.2265 24.7044H84.2101C84.0122 23.3031 83.4737 22.1536 82.5939 21.2559C81.7144 20.3363 80.527 19.8765 79.0317 19.8765ZM89.2838 35.1486C88.8442 35.1486 88.4922 35.0172 88.2283 34.7544C87.9866 34.4699 87.8655 34.1304 87.8655 33.7363C87.8655 33.3422 88.0196 32.9481 88.3273 32.554L93.4398 26.1824L87.9974 19.778C87.7116 19.4276 87.5578 19.0554 87.5356 18.6613C87.5137 18.2453 87.6238 17.895 87.8655 17.6103C88.1074 17.3257 88.4703 17.1833 88.954 17.1833C89.4817 17.1833 89.8997 17.3695 90.2073 17.7417L95.6167 24.1789L100.465 17.7417C100.641 17.5227 100.828 17.3804 101.026 17.3147C101.224 17.2271 101.444 17.1833 101.686 17.1833C102.17 17.1833 102.533 17.3366 102.774 17.6431C103.016 17.9278 103.126 18.2781 103.104 18.6941C103.104 19.1102 102.95 19.5152 102.642 19.9093L97.6617 26.3794L102.906 32.6196C103.236 33.0138 103.39 33.4079 103.368 33.802C103.368 34.1743 103.225 34.4917 102.939 34.7544C102.675 35.0172 102.324 35.1486 101.884 35.1486C101.664 35.1486 101.455 35.1157 101.257 35.05C101.059 34.9843 100.872 34.8419 100.696 34.6231L95.4518 28.3829L90.4712 34.6231C90.1414 34.9733 89.7456 35.1486 89.2838 35.1486ZM112.136 35.2799C110.531 35.2799 109.091 34.8858 107.815 34.0976C106.54 33.2875 105.529 32.2037 104.781 30.8461C104.055 29.4667 103.692 27.912 103.692 26.1824C103.692 24.4527 104.088 22.898 104.88 21.5186C105.694 20.1392 106.782 19.0554 108.145 18.2672C109.531 17.457 111.081 17.052 112.796 17.052C114.511 17.052 116.051 17.457 117.414 18.2672C118.777 19.0554 119.855 20.1392 120.646 21.5186C121.46 22.898 121.867 24.4527 121.867 26.1824V33.5064C121.867 33.988 121.702 34.3932 121.372 34.7216C121.064 35.0282 120.668 35.1814 120.184 35.1814C119.701 35.1814 119.294 35.0282 118.964 34.7216C118.656 34.3932 118.502 33.988 118.502 33.5064V32.2912C117.733 33.2108 116.798 33.9444 115.699 34.4917C114.621 35.0172 113.434 35.2799 112.136 35.2799ZM112.796 32.3241C113.917 32.3241 114.918 32.0613 115.798 31.5358C116.677 30.9885 117.37 30.2549 117.876 29.3353C118.381 28.3939 118.634 27.3429 118.634 26.1824C118.634 25 118.381 23.949 117.876 23.0294C117.37 22.0879 116.677 21.3544 115.798 20.8289C114.918 20.2816 113.917 20.0079 112.796 20.0079C111.697 20.0079 110.696 20.2816 109.794 20.8289C108.915 21.3544 108.211 22.0879 107.683 23.0294C107.178 23.949 106.925 25 106.925 26.1824C106.925 27.3429 107.178 28.3939 107.683 29.3353C108.211 30.2549 108.915 30.9885 109.794 31.5358C110.696 32.0613 111.697 32.3241 112.796 32.3241ZM129.842 35.1486C128.875 35.1486 128.017 34.8858 127.27 34.3603C126.522 33.8348 125.939 33.1233 125.521 32.2255C125.104 31.3059 124.895 30.2549 124.895 29.0726V11.1402C124.895 10.6585 125.049 10.2644 125.357 9.95785C125.664 9.65133 126.06 9.49805 126.544 9.49805C127.028 9.49805 127.423 9.65133 127.731 9.95785C128.039 10.2644 128.193 10.6585 128.193 11.1402V29.0726C128.193 29.8826 128.347 30.5505 128.655 31.076C128.963 31.6015 129.359 31.8642 129.842 31.8642H130.667C131.107 31.8642 131.459 32.0174 131.722 32.3241C132.008 32.6307 132.151 33.0248 132.151 33.5064C132.151 33.988 131.942 34.3821 131.525 34.6888C131.107 34.9954 130.568 35.1486 129.908 35.1486H129.842ZM137.356 43.0309C137.136 43.0309 136.872 42.9652 136.565 42.8339C135.597 42.3959 135.333 41.7062 135.773 40.7647L139.072 33.375L131.65 19.351C131.43 18.935 131.397 18.5409 131.551 18.1686C131.727 17.7745 132.024 17.4899 132.442 17.3147C132.859 17.1396 133.255 17.1286 133.629 17.2819C134.003 17.4132 134.289 17.6869 134.487 18.103L140.523 30.0579L145.833 18.1358C146.273 17.2162 146.966 16.9534 147.911 17.3476C148.901 17.7636 149.175 18.4533 148.736 19.4167L138.643 42.0128C138.379 42.6915 137.95 43.0309 137.356 43.0309ZM157.149 35.1486C156.049 35.1486 155.06 34.8748 154.18 34.3275C153.301 33.7581 152.608 32.9919 152.102 32.0285C151.596 31.065 151.343 29.9812 151.343 28.777V20.6647H149.826C149.364 20.6647 148.991 20.5333 148.705 20.2706C148.419 20.0079 148.276 19.6794 148.276 19.2853C148.276 18.8474 148.419 18.4971 148.705 18.2343C148.991 17.9716 149.364 17.8402 149.826 17.8402H151.343V13.1108C151.343 12.6291 151.498 12.235 151.805 11.9284C152.113 11.6219 152.509 11.4686 152.993 11.4686C153.477 11.4686 153.872 11.6219 154.18 11.9284C154.488 12.235 154.642 12.6291 154.642 13.1108V17.8402H157.446C157.907 17.8402 158.281 17.9716 158.567 18.2343C158.853 18.4971 158.996 18.8474 158.996 19.2853C158.996 19.6794 158.853 20.0079 158.567 20.2706C158.281 20.5333 157.907 20.6647 157.446 20.6647H154.642V28.777C154.642 29.6527 154.884 30.3863 155.368 30.9775C155.851 31.5687 156.445 31.8642 157.149 31.8642H158.27C158.666 31.8642 158.996 32.0174 159.26 32.3241C159.546 32.6307 159.688 33.0248 159.688 33.5064C159.688 33.988 159.502 34.3821 159.128 34.6888C158.776 34.9954 158.314 35.1486 157.742 35.1486H157.149ZM164.516 35.1486C164.032 35.1486 163.626 34.9954 163.296 34.6888C162.988 34.3603 162.834 33.9552 162.834 33.4736V18.8583C162.834 18.3548 162.988 17.9497 163.296 17.6431C163.626 17.3366 164.032 17.1833 164.516 17.1833C165.022 17.1833 165.429 17.3366 165.737 17.6431C166.044 17.9497 166.199 18.3548 166.199 18.8583V33.4736C166.199 33.9552 166.044 34.3603 165.737 34.6888C165.429 34.9954 165.022 35.1486 164.516 35.1486ZM164.516 14.2603C163.923 14.2603 163.406 14.0523 162.966 13.6363C162.548 13.1984 162.339 12.6838 162.339 12.0927C162.339 11.5015 162.548 10.9979 162.966 10.5819C163.406 10.144 163.923 9.92501 164.516 9.92501C165.11 9.92501 165.616 10.144 166.034 10.5819C166.473 10.9979 166.693 11.5015 166.693 12.0927C166.693 12.6838 166.473 13.1984 166.034 13.6363C165.616 14.0523 165.11 14.2603 164.516 14.2603ZM179.318 35.2799C177.559 35.2799 175.987 34.8858 174.601 34.0976C173.238 33.2875 172.161 32.2037 171.369 30.8461C170.599 29.4667 170.215 27.912 170.215 26.1824C170.215 24.4089 170.599 22.8324 171.369 21.453C172.139 20.0735 173.194 19.0007 174.535 18.2343C175.877 17.4461 177.416 17.052 179.153 17.052C181.748 17.052 183.903 18.0373 185.618 20.0079C185.926 20.3582 186.036 20.7195 185.948 21.0917C185.86 21.4639 185.618 21.7923 185.222 22.077C184.914 22.2959 184.574 22.3726 184.2 22.3069C183.826 22.2193 183.485 22.0222 183.177 21.7157C182.1 20.5771 180.758 20.0079 179.153 20.0079C177.46 20.0079 176.086 20.5771 175.03 21.7157C173.975 22.8324 173.447 24.3214 173.447 26.1824C173.447 27.3647 173.689 28.4157 174.173 29.3353C174.678 30.2549 175.371 30.9885 176.251 31.5358C177.13 32.0613 178.153 32.3241 179.318 32.3241C180.814 32.3241 182.023 31.941 182.946 31.1745C183.298 30.89 183.661 30.7366 184.035 30.7147C184.409 30.6709 184.739 30.7694 185.024 31.0103C185.398 31.3169 185.607 31.6672 185.651 32.0613C185.695 32.4336 185.563 32.7728 185.255 33.0794C183.672 34.5464 181.693 35.2799 179.318 35.2799ZM196.192 35.2799C194.653 35.2799 193.224 35.05 191.904 34.5902C190.607 34.1086 189.596 33.5064 188.87 32.7839C188.54 32.4336 188.397 32.0395 188.441 31.6015C188.507 31.1417 188.727 30.7694 189.101 30.4848C189.541 30.1346 189.969 29.9922 190.387 30.0579C190.827 30.1017 191.201 30.2878 191.509 30.6162C191.882 31.0321 192.476 31.4263 193.29 31.7986C194.125 32.1488 195.049 32.3241 196.06 32.3241C197.336 32.3241 198.303 32.116 198.963 31.7C199.645 31.2841 199.997 30.7476 200.018 30.0907C200.04 29.4339 199.722 28.8645 199.062 28.3829C198.424 27.9013 197.248 27.5071 195.533 27.2005C193.312 26.7625 191.695 26.1057 190.684 25.2299C189.694 24.3542 189.2 23.2812 189.2 22.0113C189.2 20.8946 189.53 19.975 190.189 19.2525C190.849 18.508 191.695 17.9606 192.729 17.6103C193.763 17.2381 194.84 17.052 195.961 17.052C197.413 17.052 198.699 17.2819 199.821 17.7417C200.942 18.2015 201.833 18.8365 202.492 19.6466C202.8 19.9969 202.943 20.3691 202.921 20.7632C202.899 21.1355 202.712 21.4529 202.36 21.7157C202.009 21.9566 201.591 22.0332 201.107 21.9456C200.623 21.858 200.216 21.661 199.887 21.3544C199.337 20.8289 198.743 20.4677 198.105 20.2706C197.468 20.0735 196.731 19.975 195.895 19.975C194.928 19.975 194.103 20.1392 193.422 20.4677C192.762 20.7961 192.432 21.2778 192.432 21.9128C192.432 22.3069 192.531 22.6681 192.729 22.9966C192.949 23.3031 193.367 23.5878 193.982 23.8505C194.598 24.0914 195.5 24.3321 196.687 24.5731C199.172 25.0547 200.887 25.7444 201.833 26.6422C202.8 27.5179 203.284 28.6017 203.284 29.8937C203.284 30.9008 203.009 31.8096 202.459 32.6196C201.932 33.4297 201.14 34.0758 200.084 34.5574C199.051 35.039 197.754 35.2799 196.192 35.2799Z" fill="white"/>
<path id="Vector_2" fill-rule="evenodd" clip-rule="evenodd" d="M13.4713 34.4572C14.4131 34.9608 15.5538 34.2814 15.5538 33.2171V23.7695C15.5538 22.6035 14.6045 21.6582 13.4334 21.6582H9.89481C8.72374 21.6582 7.77441 22.6035 7.77441 23.7695V30.5685C7.77441 31.0867 8.06053 31.5632 8.51912 31.8084L13.4713 34.4572Z" fill="#E73369"/>
<path id="Vector_3" d="M24.242 35.8144C24.6929 35.5669 24.973 35.0947 24.973 34.5819V13.9756C24.973 12.8095 24.0238 11.8643 22.8526 11.8643H19.3186C18.1476 11.8643 17.1982 12.8095 17.1982 13.9756V36.1501C17.1982 36.3174 17.2897 36.4718 17.437 36.5525C19.1366 37.4859 21.1983 37.4859 22.898 36.5525L24.242 35.8144Z" fill="#F2B926"/>
<path id="Vector_4" d="M34.0287 30.5999C34.2478 30.3693 34.351 30.0566 34.351 29.7389V18.1992C34.351 17.0332 33.4017 16.0879 32.2306 16.0879H28.7434C27.5723 16.0879 26.623 17.0332 26.623 18.1992V32.6868C26.623 33.7699 27.8003 34.4472 28.7427 33.906L32.7461 31.6075C33.2272 31.3311 33.6574 30.9905 34.0287 30.5999Z" fill="#59BC49"/>
<path id="Vector_5" fill-rule="evenodd" clip-rule="evenodd" d="M16.0034 44.4977L4.69464 37.9645C1.78863 36.2858 0 33.1934 0 29.848V16.7559C0 13.4105 1.78863 10.3182 4.69464 8.63933L16.0034 2.10606C18.928 0.416469 22.5376 0.416471 25.4622 2.10606L36.771 8.63933C39.6769 10.3182 41.4656 13.4105 41.4656 16.7559V29.848C41.4656 33.1934 39.6769 36.2858 36.771 37.9645L25.4622 44.4977C22.5376 46.1875 18.928 46.1875 16.0034 44.4977ZM23.5704 5.35269L34.8792 11.8859C36.6229 12.8932 37.696 14.7487 37.696 16.7559V29.848C37.696 31.8552 36.6229 33.7106 34.8792 34.718L23.5704 41.2512C21.8157 42.2649 19.6499 42.2649 17.8952 41.2512L6.58639 34.718C4.84278 33.7106 3.7696 31.8552 3.7696 29.848V16.7559C3.7696 14.7487 4.84278 12.8932 6.58639 11.8859L17.8952 5.35269C19.6499 4.33894 21.8157 4.33894 23.5704 5.35269Z" fill="white"/>
</g>
<defs>
<clipPath id="clip0_839_10731">
<rect width="204.736" height="45.042" fill="white" transform="translate(0 0.838867)"/>
</clipPath>
</defs>
</svg>
