<svg width="16" height="16" viewBox="0 0 16 16" fill="none" xmlns="http://www.w3.org/2000/svg">
<path d="M10.54 13.4532C10.3667 13.4532 10.1867 13.4465 9.99338 13.4265C9.64671 13.3998 9.25338 13.3332 8.84671 13.2332L7.72671 12.9665C4.65338 12.2398 3.64671 10.6132 4.36671 7.54651L5.02005 4.75318C5.16671 4.11985 5.34005 3.60651 5.55338 3.17985C6.70005 0.813181 8.89338 1.02651 10.4534 1.39318L11.5667 1.65318C13.1267 2.01985 14.1134 2.59985 14.6667 3.48651C15.2134 4.37318 15.3 5.51318 14.9334 7.07318L14.28 9.85985C13.7067 12.2998 12.5134 13.4532 10.54 13.4532ZM8.74671 2.16651C7.63338 2.16651 6.92671 2.62651 6.45338 3.61318C6.28005 3.97318 6.12671 4.41985 5.99338 4.97985L5.34005 7.77318C4.74671 10.2932 5.43338 11.3932 7.95338 11.9932L9.07338 12.2598C9.43338 12.3465 9.77338 12.3998 10.08 12.4265C11.8934 12.6065 12.7934 11.8132 13.3 9.63318L13.9534 6.84651C14.2534 5.55985 14.2134 4.65985 13.8134 4.01318C13.4134 3.36651 12.6267 2.92651 11.3334 2.62651L10.22 2.36651C9.66671 2.23318 9.17338 2.16651 8.74671 2.16651Z" fill="#E5E7EB"/>
<path d="M5.55353 14.8331C3.8402 14.8331 2.74686 13.8065 2.04686 11.6398L1.19353 9.00646C0.246864 6.07312 1.09353 4.41979 4.01353 3.47312L5.06686 3.13312C5.41353 3.02646 5.67353 2.95312 5.90686 2.91312C6.1002 2.87312 6.28686 2.94646 6.4002 3.09979C6.51353 3.25312 6.53353 3.45312 6.45353 3.62646C6.2802 3.97979 6.12686 4.42646 6.0002 4.98646L5.34686 7.77979C4.75353 10.2998 5.4402 11.3998 7.9602 11.9998L9.0802 12.2665C9.4402 12.3531 9.7802 12.4065 10.0869 12.4331C10.3002 12.4531 10.4735 12.5998 10.5335 12.8065C10.5869 13.0131 10.5069 13.2265 10.3335 13.3465C9.89353 13.6465 9.3402 13.8998 8.6402 14.1265L7.58686 14.4731C6.8202 14.7131 6.15353 14.8331 5.55353 14.8331ZM5.18686 4.14646L4.32686 4.42646C1.94686 5.19312 1.3802 6.31312 2.14686 8.69979L3.0002 11.3331C3.77353 13.7131 4.89353 14.2865 7.27353 13.5198L8.32686 13.1731C8.36686 13.1598 8.4002 13.1465 8.4402 13.1331L7.73353 12.9665C4.6602 12.2398 3.65353 10.6131 4.37353 7.54646L5.02686 4.75312C5.07353 4.53979 5.12686 4.33312 5.18686 4.14646Z" fill="#E5E7EB"/>
<path d="M11.6599 7.00652C11.6199 7.00652 11.5799 6.99985 11.5332 6.99318L8.29992 6.17318C8.03325 6.10652 7.87325 5.83318 7.93992 5.56652C8.00658 5.29985 8.27992 5.13985 8.54658 5.20652L11.7799 6.02652C12.0466 6.09318 12.2066 6.36652 12.1399 6.63318C12.0866 6.85318 11.8799 7.00652 11.6599 7.00652Z" fill="#E5E7EB"/>
<path d="M9.70643 9.25993C9.66643 9.25993 9.62643 9.25326 9.57976 9.2466L7.63976 8.75326C7.37309 8.6866 7.21309 8.41326 7.27976 8.1466C7.34643 7.87993 7.61976 7.71993 7.88643 7.7866L9.82643 8.27993C10.0931 8.3466 10.2531 8.61993 10.1864 8.8866C10.1331 9.11326 9.93309 9.25993 9.70643 9.25993Z" fill="#E5E7EB"/>
</svg>
