<svg width="24" height="25" viewBox="0 0 24 25" fill="none" xmlns="http://www.w3.org/2000/svg">
<path opacity="0.4" d="M18.9116 15.578L18.913 15.5802C19.2233 16.0894 19.2775 16.6884 19.0721 17.2337C18.8637 17.7866 18.4355 18.2037 17.8839 18.385L17.8839 18.385L17.8811 18.3859C15.9942 19.0181 14.0079 19.33 12.0199 19.33C10.032 19.33 8.04657 19.0181 6.16098 18.3766L6.15998 18.3763C5.54292 18.1678 5.10185 17.7472 4.92065 17.2414L4.92067 17.2414L4.91923 17.2374C4.7272 16.7151 4.78757 16.1325 5.11856 15.5774C5.11879 15.5771 5.11902 15.5767 5.11925 15.5763L6.12778 13.9087L6.12784 13.9088L6.13183 13.9019C6.2675 13.6693 6.38148 13.358 6.46118 13.0649C6.54078 12.7721 6.59994 12.4469 6.59994 12.18V9.64998C6.59994 6.66557 9.02664 4.22998 12.0199 4.22998C15.0133 4.22998 17.4399 6.66557 17.4399 9.64998V12.18C17.4399 12.4469 17.4991 12.7721 17.5786 13.0656C17.6583 13.3603 17.7717 13.6717 17.9051 13.9068L17.905 13.9069L17.9117 13.918L18.9116 15.578Z" fill="#5F6E7B" stroke="#5F6E7B"/>
<mask id="path-2-inside-1_1609_3360" fill="white">
<path d="M14.25 4.15008C13.56 3.88008 12.81 3.73008 12.02 3.73008C11.24 3.73008 10.49 3.87008 9.80005 4.15008C10.23 3.34008 11.08 2.83008 12.02 2.83008C12.97 2.83008 13.81 3.34008 14.25 4.15008Z"/>
</mask>
<path d="M14.25 4.15008C13.56 3.88008 12.81 3.73008 12.02 3.73008C11.24 3.73008 10.49 3.87008 9.80005 4.15008C10.23 3.34008 11.08 2.83008 12.02 2.83008C12.97 2.83008 13.81 3.34008 14.25 4.15008Z" fill="#5F6E7B"/>
<path d="M14.25 4.15008L13.8856 5.08132L16.436 6.0793L15.1288 3.67275L14.25 4.15008ZM9.80005 4.15008L8.91679 3.68119L7.6268 6.11118L10.1761 5.07669L9.80005 4.15008ZM14.6144 3.21884C13.8115 2.90464 12.9381 2.73008 12.02 2.73008V4.73008C12.682 4.73008 13.3086 4.85551 13.8856 5.08132L14.6144 3.21884ZM12.02 2.73008C11.12 2.73008 10.2414 2.89179 9.42403 3.22347L10.1761 5.07669C10.7387 4.84837 11.3601 4.73008 12.02 4.73008V2.73008ZM10.6833 4.61897C10.937 4.14104 11.4441 3.83008 12.02 3.83008V1.83008C10.716 1.83008 9.52308 2.53912 8.91679 3.68119L10.6833 4.61897ZM12.02 3.83008C12.602 3.83008 13.1056 4.13822 13.3713 4.62741L15.1288 3.67275C14.5145 2.54193 13.3381 1.83008 12.02 1.83008V3.83008Z" fill="#5F6E7B" mask="url(#path-2-inside-1_1609_3360)"/>
<path d="M10.0955 21.4444C10.1459 21.4494 10.1966 21.454 10.2473 21.4583C10.8288 21.5092 11.4233 21.5401 12.0199 21.5401C12.6073 21.5401 13.1923 21.5092 13.7644 21.4581L13.7644 21.4581L13.7673 21.4578C13.8103 21.4537 13.8579 21.4498 13.9085 21.4457C13.4473 21.9873 12.762 22.3301 11.9999 22.3301C11.341 22.3301 10.6923 22.062 10.2397 21.5929L10.231 21.5839L10.2219 21.5753C10.1781 21.5343 10.1359 21.4905 10.0955 21.4444Z" fill="#5F6E7B" stroke="#5F6E7B"/>
</svg>
