<svg width="24" height="24" viewBox="0 0 24 24" fill="none" xmlns="http://www.w3.org/2000/svg">
<g clip-path="url(#clip0_873_743)">
<rect width="24" height="24" fill="white" fill-opacity="0.03"/>
<path d="M10.0273 9.56534C9.98189 9.16193 9.79439 8.84943 9.46484 8.62784C9.1353 8.40341 8.72053 8.29119 8.22053 8.29119C7.86257 8.29119 7.55291 8.34801 7.29155 8.46165C7.03018 8.57244 6.82706 8.72585 6.68217 8.92188C6.54013 9.11506 6.46911 9.33523 6.46911 9.58239C6.46911 9.78977 6.5174 9.96875 6.61399 10.1193C6.71342 10.2699 6.84268 10.3963 7.00178 10.4986C7.16371 10.598 7.337 10.6818 7.52166 10.75C7.70632 10.8153 7.88388 10.8693 8.05433 10.9119L8.90661 11.1335C9.18501 11.2017 9.47053 11.294 9.76314 11.4105C10.0558 11.527 10.3271 11.6804 10.5771 11.8707C10.8271 12.0611 11.0288 12.2969 11.1822 12.5781C11.3384 12.8594 11.4165 13.196 11.4165 13.5881C11.4165 14.0824 11.2887 14.5213 11.033 14.9048C10.7802 15.2884 10.4123 15.5909 9.92933 15.8125C9.44922 16.0341 8.86825 16.1449 8.18643 16.1449C7.53303 16.1449 6.96768 16.0412 6.49041 15.8338C6.01314 15.6264 5.63956 15.3324 5.36967 14.9517C5.09979 14.5682 4.95064 14.1136 4.92223 13.5881H6.24325C6.26882 13.9034 6.37109 14.1662 6.55007 14.3764C6.73189 14.5838 6.96342 14.7386 7.24467 14.8409C7.52876 14.9403 7.83984 14.9901 8.17791 14.9901C8.55007 14.9901 8.88104 14.9318 9.17081 14.8153C9.46342 14.696 9.69354 14.5312 9.86115 14.321C10.0288 14.108 10.1126 13.8594 10.1126 13.5753C10.1126 13.3168 10.0387 13.1051 9.89098 12.9403C9.74609 12.7756 9.54865 12.6392 9.29865 12.5312C9.05149 12.4233 8.77166 12.3281 8.45916 12.2457L7.42791 11.9645C6.72905 11.7741 6.17507 11.4943 5.76598 11.125C5.35973 10.7557 5.15661 10.267 5.15661 9.65909C5.15661 9.15625 5.29297 8.71733 5.5657 8.34233C5.83842 7.96733 6.20774 7.67614 6.67365 7.46875C7.13956 7.25852 7.66513 7.15341 8.25036 7.15341C8.84126 7.15341 9.36257 7.2571 9.81428 7.46449C10.2688 7.67188 10.6268 7.95739 10.8881 8.32102C11.1495 8.68182 11.2859 9.09659 11.2972 9.56534H10.0273ZM15.8153 16H12.9901V7.27273H15.9048C16.7599 7.27273 17.4943 7.44744 18.108 7.79688C18.7216 8.14347 19.1918 8.64205 19.5185 9.29261C19.848 9.94034 20.0128 10.7173 20.0128 11.6236C20.0128 12.5327 19.8466 13.3139 19.5142 13.9673C19.1847 14.6207 18.7074 15.1236 18.0824 15.4759C17.4574 15.8253 16.7017 16 15.8153 16ZM14.3068 14.8494H15.7429C16.4077 14.8494 16.9602 14.7244 17.4006 14.4744C17.8409 14.2216 18.1705 13.8565 18.3892 13.3793C18.608 12.8991 18.7173 12.3139 18.7173 11.6236C18.7173 10.9389 18.608 10.358 18.3892 9.88068C18.1733 9.40341 17.8509 9.04119 17.4219 8.79403C16.9929 8.54687 16.4602 8.4233 15.8239 8.4233H14.3068V14.8494Z" fill="#D1D5DB"/>
</g>
<defs>
<clipPath id="clip0_873_743">
<path d="M0 2C0 0.89543 0.895431 0 2 0H22C23.1046 0 24 0.895431 24 2V22C24 23.1046 23.1046 24 22 24H2C0.89543 24 0 23.1046 0 22V2Z" fill="white"/>
</clipPath>
</defs>
</svg>
