<svg width="26" height="40" viewBox="0 0 26 40" fill="none" xmlns="http://www.w3.org/2000/svg">
<path fill-rule="evenodd" clip-rule="evenodd" d="M6.03688 20.3145C5.56567 20.3145 4.51855 22.0946 4.51855 22.0946C4.51855 22.0946 6.76986 23.6652 6.97928 23.8223C7.97405 24.5553 8.96881 25.3406 9.91121 26.1783C11.1678 27.3301 12.4767 28.5343 13.2096 30.105C13.4191 30.5762 13.5761 31.0474 13.6285 31.571C13.6285 31.4139 13.6808 31.1521 13.6808 30.9951C13.6808 30.5239 13.7332 30.0003 13.6808 29.5291C13.6285 28.639 13.4191 27.6966 12.9479 26.9113C12.6861 26.4401 12.3719 26.0213 12.0055 25.6548C11.063 24.6076 9.96357 23.6129 8.91645 22.6705C8.34054 22.1469 7.76462 21.6757 7.18871 21.2045C6.87457 20.9427 6.50808 20.5762 6.08923 20.3668C6.08923 20.3145 6.03688 20.3145 6.03688 20.3145Z" fill="#DBE1EA"/>
<path fill-rule="evenodd" clip-rule="evenodd" d="M12.1102 8.74388C12.1102 9.21509 12.0578 9.73865 12.1102 10.2098C12.1625 11.0999 12.4243 12.0423 12.8432 12.8276C13.1049 13.2988 13.4191 13.6653 13.7856 14.0842C14.728 15.1313 15.7751 16.0737 16.8222 17.0161C17.3981 17.4873 17.9217 18.0109 18.4976 18.4821C18.8117 18.7439 19.1782 19.1104 19.5971 19.3198C20.0159 19.5292 21.1678 17.592 21.1678 17.592C21.1678 17.592 18.9688 16.0214 18.7594 15.9166C17.7646 15.1837 16.7699 14.3983 15.8798 13.5606C14.6233 12.4088 13.3667 11.2046 12.6337 9.63393C12.4243 9.16273 12.2673 8.69153 12.2149 8.16797C12.2149 8.37739 12.1625 8.58682 12.1102 8.74388Z" fill="#DBE1EA"/>
<path fill-rule="evenodd" clip-rule="evenodd" d="M3.57625 23.8219C3.5239 24.869 3.5239 25.9161 3.47154 26.9632C3.41918 27.3821 3.15741 27.8533 3.41918 28.1674C3.57625 28.3768 3.73332 28.4815 3.94274 28.6386C4.09981 28.7957 4.25688 29.0051 4.4663 29.2145C4.78044 29.4763 5.14693 29.7381 5.51342 29.9475C6.66525 30.6805 7.76473 31.4658 8.81185 32.3559C9.96368 33.2983 11.1679 34.3454 11.5344 35.8637C11.9008 37.2773 11.482 38.6909 11.0632 39.9998C11.7961 38.6386 12.5815 37.382 13.0527 35.8637C13.4192 34.7119 13.3145 33.2459 12.948 32.1464C12.6338 31.204 12.1626 30.3663 11.5344 29.6334C11.3773 29.4239 11.2202 29.2669 11.0108 29.0574C9.64954 27.6962 7.97415 26.492 6.45583 25.2878C5.51342 24.5548 4.57102 23.8742 3.68096 23.0889C3.68096 23.1412 3.57625 23.7695 3.57625 23.8219Z" fill="#BECDE3"/>
<path fill-rule="evenodd" clip-rule="evenodd" d="M8.1836 7.95801C7.55533 8.01036 7.03177 8.58628 6.66528 9.05748C6.45586 9.31926 6.24643 9.6334 5.98466 9.94753C4.88518 11.4659 3.52393 12.7748 2.47681 14.2931C2.16267 14.7119 1.90089 15.1308 1.63911 15.5496C-0.193342 18.4292 -0.507477 22.9318 1.32498 25.9161C1.69147 26.5444 2.16267 27.225 2.68623 27.7486C3.20979 28.2721 3.89042 28.5863 4.30927 29.1622C3.57628 27.6438 3.73335 25.9161 4.25691 24.3978C4.83283 22.8795 5.72288 21.5182 6.76999 20.314C7.81711 19.1622 9.17837 18.3245 10.1208 17.0679C10.749 16.2302 11.2726 15.1831 11.482 14.136C11.6914 12.9842 11.5344 11.8323 11.1679 10.7852C10.9061 10.157 10.592 9.58104 10.1208 9.05748C9.64957 8.58628 8.96894 7.95801 8.28831 7.95801C8.28831 7.95801 8.23596 7.95801 8.1836 7.95801Z" fill="#F5F6F8"/>
<path fill-rule="evenodd" clip-rule="evenodd" d="M13.0005 4.13612C12.634 5.28795 12.7387 6.75392 13.1052 7.85339C13.4194 8.7958 13.8906 9.63349 14.5188 10.3665C14.6759 10.5759 14.833 10.733 15.0424 10.9424C16.4036 12.3036 18.079 13.5078 19.5974 14.712C20.5398 15.445 21.4822 16.1256 22.3722 16.911C22.3199 16.8586 22.3722 16.2827 22.3722 16.178C22.4246 15.1309 22.4246 14.0837 22.4769 13.0366C22.5293 12.6178 22.7911 12.1466 22.5293 11.8324C22.3722 11.623 22.2152 11.5183 22.0057 11.3612C21.8487 11.2042 21.6916 10.9947 21.4822 10.7853C21.168 10.5235 20.8015 10.3141 20.4351 10.0523C19.2832 9.31936 18.1837 8.53402 17.1366 7.64397C15.9848 6.70156 14.7806 5.65444 14.4141 4.13612C14.0476 2.72251 14.4665 1.3089 14.8853 0C14.2571 1.36125 13.4717 2.6178 13.0005 4.13612Z" fill="#BECDE3"/>
<path fill-rule="evenodd" clip-rule="evenodd" d="M21.691 15.6025C21.1151 17.1208 20.225 18.4821 19.1779 19.6863C18.1308 20.8381 16.7695 21.6758 15.8271 22.9323C15.1989 23.77 14.6753 24.8171 14.4659 25.8643C14.2564 27.0161 14.4135 28.1679 14.78 29.215C15.0418 29.8433 15.3559 30.4192 15.8271 30.9428C16.2983 31.414 17.0837 32.0946 17.8167 32.0423C18.4449 31.9376 18.9161 31.414 19.2826 30.8904C19.492 30.6287 19.7015 30.3145 19.9632 30.0004C21.0627 28.5344 22.424 27.1732 23.4711 25.6548C23.7852 25.236 24.047 24.8171 24.3611 24.3459C26.1936 21.414 26.5077 16.9638 24.6753 13.9795C24.2564 13.3512 23.8376 12.6706 23.2617 12.147C22.7381 11.6234 22.0575 11.3093 21.6386 10.7334C22.3716 12.3041 22.2669 14.0842 21.691 15.6025Z" fill="#F5F6F8"/>
</svg>
