<svg width="188" height="24" viewBox="0 0 188 24" fill="none" xmlns="http://www.w3.org/2000/svg">
<path d="M10.3569 19.1226C10.3569 19.334 10.2245 19.5238 10.0211 19.581C9.67152 19.6794 9.23747 19.77 8.71891 19.853C8.03292 19.951 7.21392 20 6.26192 20C5.05792 20 4.02892 19.846 3.17492 19.538C2.33492 19.216 1.69792 18.677 1.26392 17.921C0.829915 17.151 0.612915 16.087 0.612915 14.729C0.612915 12.881 1.03291 11.544 1.87292 10.718C2.72692 9.892 4.04292 9.479 5.82092 9.479C7.09492 9.479 8.09592 9.66101 8.82392 10.025C9.56592 10.389 10.0909 10.907 10.3989 11.579C10.7209 12.237 10.8819 13.021 10.8819 13.931C10.8819 14.197 10.8679 14.484 10.8399 14.792C10.8267 15.0826 10.7948 15.367 10.7442 15.6452C10.7383 15.6777 10.7224 15.7075 10.6991 15.7308V15.7308C10.6683 15.7617 10.6264 15.779 10.5828 15.779H4.32775C4.02027 15.779 3.77575 16.0613 3.90925 16.3383C4.05881 16.6486 4.29003 16.8682 4.60292 16.997C5.09291 17.193 5.88392 17.291 6.97592 17.291C7.70392 17.291 8.30592 17.277 8.78192 17.249C9.25668 17.2083 9.73802 17.1545 10.2259 17.0875C10.256 17.0834 10.2866 17.0912 10.3109 17.1095V17.1095C10.3399 17.1312 10.3569 17.1653 10.3569 17.2016V19.1226ZM7.46291 13.574C7.73906 13.574 7.97195 13.3474 7.91491 13.0772C7.88705 12.9452 7.84705 12.8238 7.79492 12.713C7.69692 12.461 7.49392 12.272 7.18592 12.146C6.87792 12.006 6.42292 11.936 5.82092 11.936C4.93892 11.936 4.35792 12.09 4.07792 12.398C3.90875 12.585 3.79337 12.8116 3.73179 13.0778C3.66956 13.3469 3.90277 13.574 4.17892 13.574H7.46291Z" fill="#2C82FA"/>
<path d="M12.7117 16.094C12.5408 16.094 12.3789 16.0077 12.3074 15.8525C12.2576 15.7444 12.2099 15.622 12.1642 15.485C12.0802 15.233 12.0382 14.967 12.0382 14.687C12.0382 14.169 12.1572 13.798 12.3952 13.574C12.6332 13.336 12.9412 13.217 13.3192 13.217H17.5164C17.6994 13.217 17.8696 13.3164 17.9395 13.4855C17.9814 13.5868 18.0233 13.7003 18.0652 13.826C18.1632 14.078 18.2122 14.344 18.2122 14.624C18.2122 15.142 18.0932 15.52 17.8552 15.758C17.6172 15.982 17.3092 16.094 16.9312 16.094H12.7117Z" fill="#2C82FA"/>
<path d="M23.4521 19.311C23.4521 19.5871 23.2282 19.811 22.9521 19.811H20.5921C20.3159 19.811 20.0921 19.5871 20.0921 19.311V7.01801C20.0921 6.74186 20.3159 6.51801 20.5921 6.51801H26.4341C28.1001 6.51801 29.3111 6.89601 30.0671 7.65201C30.8371 8.39401 31.2221 9.49301 31.2221 10.949C31.2221 12.041 30.9491 12.979 30.4031 13.763C29.8626 14.5251 29.1508 15.0061 28.2675 15.2059C28.2505 15.2097 28.2367 15.2221 28.2312 15.2386V15.2386C28.2241 15.26 28.2324 15.2835 28.2512 15.2959C28.5926 15.5218 28.9669 15.8858 29.3741 16.388C29.7941 16.906 30.2071 17.473 30.6131 18.089C31.032 18.6895 31.4022 19.2552 31.7237 19.7861C31.7252 19.7887 31.7261 19.7916 31.7261 19.7946V19.7946C31.7261 19.8037 31.7187 19.811 31.7096 19.811H28.0858C27.9196 19.811 27.7643 19.7285 27.6714 19.5907L25.5521 16.451C25.3561 16.157 25.1951 15.947 25.0691 15.821C24.9571 15.695 24.8171 15.618 24.6491 15.59C24.4951 15.562 24.2431 15.548 23.8931 15.548V15.548C23.6495 15.548 23.4521 15.7454 23.4521 15.989V19.311ZM25.8881 9.24801H23.9521C23.6759 9.24801 23.4521 9.47186 23.4521 9.74801V12.318C23.4521 12.5941 23.6759 12.818 23.9521 12.818H25.8881C26.5881 12.818 27.0711 12.678 27.3371 12.398C27.6171 12.118 27.7571 11.663 27.7571 11.033C27.7571 10.403 27.6171 9.94801 27.3371 9.66801C27.0711 9.38801 26.5881 9.24801 25.8881 9.24801Z" fill="#2C82FA"/>
<path d="M45.8045 19.7398C45.8063 19.7452 45.8072 19.7509 45.8072 19.7566V19.7566C45.8072 19.7867 45.7829 19.811 45.7528 19.811H42.6122C42.39 19.811 42.1947 19.6643 42.1301 19.4517C42.0559 19.2078 41.9727 18.9426 41.8802 18.656C41.7847 18.3269 41.6811 17.9817 41.5694 17.6204C41.5049 17.4117 41.3116 17.27 41.0932 17.27H37.3014C37.0781 17.27 36.8821 17.418 36.8199 17.6324C36.6223 18.3133 36.4355 18.9254 36.2596 19.4686C36.1934 19.6734 36.002 19.811 35.7868 19.811H32.6135C32.5934 19.811 32.5772 19.7948 32.5772 19.7747V19.7747C32.5772 19.7709 32.5778 19.7672 32.579 19.7635L36.77 6.86351C36.8369 6.65749 37.0289 6.51801 37.2455 6.51801H41.1391C41.3556 6.51801 41.5476 6.65738 41.6146 6.86329L45.8045 19.7398ZM39.1922 8.91201C39.1678 8.91201 39.1469 8.92917 39.1421 8.9531C39.0024 9.65923 38.8021 10.5135 38.5412 11.516C38.3282 12.3344 38.1062 13.1663 37.8753 14.0116C37.7882 14.3303 38.0277 14.645 38.3581 14.645H40.0389C40.3719 14.645 40.6118 14.3257 40.5209 14.0055C40.2816 13.1623 40.0557 12.3324 39.8432 11.516C39.5823 10.5135 39.382 9.65923 39.2423 8.9531C39.2376 8.92917 39.2166 8.91201 39.1922 8.91201V8.91201Z" fill="#2C82FA"/>
<path d="M50.5154 19.811C50.2393 19.811 50.0154 19.5871 50.0154 19.311V9.853C50.0154 9.57686 49.7916 9.35301 49.5154 9.35301H46.7354C46.4593 9.35301 46.2354 9.12915 46.2354 8.85301V7.01801C46.2354 6.74186 46.4593 6.51801 46.7354 6.51801H56.6554C56.9316 6.51801 57.1554 6.74186 57.1554 7.01801V8.853C57.1554 9.12915 56.9316 9.35301 56.6554 9.35301H53.8754C53.5993 9.35301 53.3754 9.57686 53.3754 9.85301V19.311C53.3754 19.5871 53.1516 19.811 52.8754 19.811H50.5154Z" fill="#2C82FA"/>
<path d="M59.1262 19.811C58.8501 19.811 58.6262 19.5871 58.6262 19.311V7.01801C58.6262 6.74186 58.8501 6.51801 59.1262 6.51801H67.9962C68.2724 6.51801 68.4962 6.74186 68.4962 7.01801V8.74801C68.4962 9.02415 68.2724 9.24801 67.9962 9.24801H62.4862C62.2101 9.24801 61.9862 9.47186 61.9862 9.74801V11.268C61.9862 11.5441 62.2101 11.768 62.4862 11.768H67.1352C67.4114 11.768 67.6352 11.9919 67.6352 12.268V13.998C67.6352 14.2741 67.4114 14.498 67.1352 14.498H62.4862C62.2101 14.498 61.9862 14.7219 61.9862 14.998V16.581C61.9862 16.8571 62.2101 17.081 62.4862 17.081H67.9962C68.2724 17.081 68.4962 17.3049 68.4962 17.581V19.311C68.4962 19.5871 68.2724 19.811 67.9962 19.811H59.1262Z" fill="#2C82FA"/>
<path fill-rule="evenodd" clip-rule="evenodd" d="M89.4246 21.5258C87.2854 21.5258 85.4212 20.5435 84.5128 18.8843C84.2063 19.446 83.7787 19.9233 83.2683 20.3208L83.265 20.3233L83.2616 20.3258C82.2068 21.0924 80.8434 21.5258 79.4332 21.5258C77.3638 21.5258 75.4547 20.7736 74.3829 19.1623C73.8711 18.428 74.2676 17.5258 74.8757 17.207C75.5814 16.8104 76.3131 17.2241 76.6578 17.7012L76.6613 17.7061C77.1021 18.3468 77.9676 18.8014 79.3827 18.8014C80.2938 18.8014 80.9952 18.5537 81.5004 18.1739C81.9528 17.7966 82.2086 17.3446 82.2086 16.7057C82.2086 16.0668 81.9528 15.6148 81.5004 15.2375C80.9963 14.8586 80.2953 14.6101 79.3323 14.6101H79.2314C78.8491 14.6101 78.53 14.4153 78.3346 14.1543L78.2344 14.0503L78.2248 14.0374C77.8001 13.4705 77.7988 12.7027 78.2831 12.1341L80.4588 9.42329H75.6486C74.9541 9.42329 74.387 8.83449 74.387 8.1135C74.387 7.39252 74.9541 6.80371 75.6486 6.80371H82.9151C83.7175 6.80371 84.328 7.50473 84.328 8.27068V8.32307C84.328 8.73642 84.2147 9.10855 84.0252 9.3709L84.0217 9.37578L81.5918 12.4323C82.7146 12.7825 83.7226 13.4277 84.3534 14.3841C84.5098 14.0293 84.7061 13.7002 84.9375 13.3997L84.9384 13.3986L89.4799 7.37355C89.726 7.05426 90.0992 6.85611 90.4844 6.85611C91.555 6.85611 92.1729 8.15681 91.4912 9.05979L91.4901 9.06122L89.7514 11.4219C91.4521 11.5025 92.9504 12.2118 93.891 13.399C94.0075 11.6395 94.5228 10.0864 95.492 8.93645C96.6044 7.61653 98.2408 6.85611 100.223 6.85611C102.047 6.85611 103.584 7.45538 104.688 8.63042C105.027 7.95554 105.71 7.48481 106.481 7.48481C107.579 7.48481 108.499 8.44036 108.499 9.58048C108.499 10.7206 107.579 11.6761 106.481 11.6761C106.417 11.6761 106.355 11.673 106.292 11.6667C106.487 12.4498 106.582 13.299 106.582 14.1909C106.582 16.2752 106.067 18.1257 104.955 19.4454C103.843 20.7653 102.206 21.5258 100.223 21.5258C98.2467 21.5258 96.6065 20.8217 95.4904 19.4435C95.1627 19.0543 94.887 18.6191 94.661 18.1453C93.9468 20.248 91.8646 21.5258 89.4246 21.5258ZM105.875 9.58048C105.875 9.19146 106.175 8.89939 106.481 8.89939C106.786 8.89939 107.086 9.19146 107.086 9.58048C107.086 9.97986 106.827 10.2616 106.481 10.2616C106.175 10.2616 105.875 9.9695 105.875 9.58048ZM97.6451 10.6872C98.1963 9.97181 99.0781 9.52808 100.223 9.52808C101.369 9.52808 102.251 9.97181 102.802 10.6872C103.362 11.4137 103.756 12.6074 103.756 14.1909C103.756 15.7838 103.408 16.968 102.808 17.6868L102.805 17.6907L102.802 17.6947C102.251 18.4101 101.369 18.8538 100.223 18.8538C99.0781 18.8538 98.1963 18.4101 97.6451 17.6947L97.642 17.6907L97.6387 17.6868C97.0388 16.968 96.6912 15.7838 96.6912 14.1909C96.6912 12.598 97.0388 11.4138 97.6387 10.6951L97.642 10.6912L97.6451 10.6872ZM87.3731 14.7524C87.8264 14.3288 88.4707 14.0338 89.4246 14.0338C90.3792 14.0338 91.071 14.3292 91.5217 14.7478C91.9311 15.175 92.2 15.7374 92.2 16.4438C92.2 17.1649 91.9717 17.7193 91.5266 18.1352C91.076 18.5562 90.3827 18.8538 89.4246 18.8538C88.5191 18.8538 87.8251 18.5575 87.3731 18.1352L87.3677 18.1301L87.3619 18.1253C86.9247 17.7621 86.6539 17.1655 86.6992 16.4612L86.6997 16.4525V16.4438C86.6997 15.7227 86.9281 15.1682 87.3731 14.7524Z" fill="#768FB5"/>
<path opacity="0.6" d="M117.664 1.14551V23.9083" stroke="#768FB5" stroke-width="0.936"/>
<path d="M152.445 17.8743C152.539 18 152.571 18.1256 152.571 18.2827C152.571 18.4712 152.508 18.5968 152.351 18.7225C152.256 18.7853 152.099 18.8481 151.942 18.8481C151.785 18.8481 151.628 18.7853 151.503 18.6283L148.55 14.89L147.199 16.1466V18.2199C147.199 18.3769 147.136 18.534 147.042 18.6283C146.916 18.7539 146.791 18.7853 146.602 18.7853C146.414 18.7853 146.288 18.7225 146.162 18.6283C146.037 18.534 145.974 18.4084 145.974 18.2513V11.0576C145.974 10.9005 146.037 10.7748 146.131 10.6492C146.256 10.5235 146.382 10.4921 146.571 10.4921C146.759 10.4921 146.885 10.555 147.01 10.6492C147.136 10.7434 147.167 10.9005 147.167 11.0576V14.7644L151.503 10.6806C151.66 10.555 151.817 10.4921 151.974 10.4921C152.131 10.4921 152.256 10.555 152.351 10.6806C152.445 10.8063 152.508 10.9319 152.508 11.0576C152.508 11.1832 152.445 11.3089 152.351 11.4345L149.461 14.1047L152.445 17.8743Z" fill="#F5F6F8"/>
<path d="M155.775 10.4921C155.932 10.4921 156.057 10.555 156.152 10.6806C156.246 10.7748 156.309 10.9005 156.309 11.089V18.2827C156.309 18.4398 156.246 18.5654 156.12 18.6911C155.995 18.8167 155.838 18.8481 155.68 18.8481C155.492 18.8481 155.366 18.7853 155.241 18.6911C155.115 18.5654 155.084 18.4398 155.084 18.2827V12.0628L154.016 12.6911C153.921 12.7539 153.827 12.7853 153.701 12.7853C153.544 12.7853 153.387 12.7225 153.293 12.5968C153.167 12.4712 153.136 12.3455 153.136 12.1885C153.136 12.0942 153.167 12 153.23 11.9057C153.293 11.8115 153.356 11.7487 153.45 11.6858L155.366 10.555C155.461 10.5235 155.586 10.4921 155.775 10.4921Z" fill="#F5F6F8"/>
<path d="M163.031 17.7801C163.188 17.7801 163.314 17.843 163.408 17.9372C163.502 18.0314 163.565 18.1571 163.565 18.3142C163.565 18.4712 163.502 18.5969 163.408 18.6911C163.314 18.7854 163.157 18.8482 163.031 18.8482H158.696C158.539 18.8482 158.413 18.7854 158.288 18.6911C158.194 18.5969 158.131 18.4398 158.131 18.2828C158.131 18.1257 158.194 18 158.288 17.8744L161.021 14.9843C161.775 14.199 162.152 13.5079 162.152 12.911C162.152 12.4712 161.995 12.1257 161.712 11.843C161.429 11.5602 161.052 11.4032 160.612 11.4032C160.298 11.4032 160.016 11.4974 159.733 11.6545C159.45 11.8116 159.23 12.0629 159.073 12.377C158.947 12.5341 158.79 12.6283 158.602 12.6283C158.476 12.6283 158.319 12.5655 158.225 12.4712C158.099 12.377 158.036 12.2513 158.036 12.1257C158.036 12.0314 158.068 11.9372 158.131 11.843C158.194 11.7487 158.288 11.6231 158.413 11.4974C158.696 11.1519 159.01 10.8691 159.45 10.6492C159.858 10.4294 160.298 10.3351 160.707 10.3351C161.241 10.3351 161.712 10.4294 162.12 10.6492C162.529 10.8691 162.811 11.1519 163.031 11.5288C163.251 11.9058 163.345 12.3456 163.345 12.8168C163.345 13.7278 162.843 14.7016 161.838 15.7697L159.984 17.7487H163.031V17.7801Z" fill="#F5F6F8"/>
<path d="M146.539 8.48172C146.539 8.54455 146.508 8.60738 146.476 8.6702C146.414 8.73303 146.351 8.73303 146.288 8.73303C146.225 8.73303 146.162 8.70162 146.099 8.6702C146.037 8.60738 146.037 8.57596 146.037 8.48172V6.18853C146.037 6.1257 146.068 6.06288 146.099 6.00005C146.162 5.93722 146.225 5.93722 146.288 5.93722C146.351 5.93722 146.414 5.96863 146.476 6.00005C146.539 6.06288 146.539 6.09429 146.539 6.18853V8.48172ZM146.288 5.59167C146.194 5.59167 146.099 5.56026 146.068 5.52884C146.005 5.49743 145.974 5.4346 145.974 5.34036V5.24612C145.974 5.15188 146.005 5.08905 146.037 5.05764C146.099 5.02623 146.162 4.99481 146.256 4.99481C146.351 4.99481 146.445 5.02623 146.476 5.05764C146.539 5.08905 146.539 5.15188 146.539 5.24612V5.34036C146.539 5.4346 146.508 5.49743 146.476 5.52884C146.445 5.56026 146.382 5.59167 146.288 5.59167Z" fill="#768FB5"/>
<path d="M148.675 5.90576C149.335 5.90576 149.68 6.28273 149.68 7.06807V8.48168C149.68 8.5445 149.649 8.60733 149.618 8.67016C149.555 8.73299 149.492 8.73299 149.429 8.73299C149.366 8.73299 149.304 8.70157 149.241 8.67016C149.178 8.60733 149.178 8.57592 149.178 8.48168V7.03665C149.178 6.81676 149.115 6.65969 149.021 6.53403C148.927 6.40838 148.769 6.34555 148.518 6.34555C148.361 6.34555 148.235 6.37697 148.11 6.43979C147.984 6.50262 147.89 6.59686 147.827 6.6911C147.764 6.78534 147.733 6.911 147.733 7.03665V8.48168C147.733 8.5445 147.701 8.60733 147.67 8.67016C147.607 8.73299 147.544 8.73299 147.482 8.73299C147.419 8.73299 147.356 8.70157 147.293 8.67016C147.23 8.60733 147.23 8.5445 147.23 8.48168V6.2199C147.23 6.15707 147.262 6.09424 147.293 6.03142C147.356 5.96859 147.419 5.96859 147.482 5.96859C147.544 5.96859 147.607 6 147.67 6.03142C147.733 6.09424 147.733 6.12566 147.733 6.2199V6.40838C147.827 6.25131 147.953 6.15707 148.141 6.06283C148.298 5.93718 148.487 5.90576 148.675 5.90576Z" fill="#768FB5"/>
<path d="M151.817 5.90576C152.476 5.90576 152.822 6.28273 152.822 7.06807V8.48168C152.822 8.5445 152.791 8.60733 152.759 8.67016C152.696 8.73299 152.633 8.73299 152.571 8.73299C152.508 8.73299 152.445 8.70157 152.382 8.67016C152.319 8.60733 152.319 8.57592 152.319 8.48168V7.03665C152.319 6.81676 152.257 6.65969 152.162 6.53403C152.068 6.40838 151.911 6.34555 151.66 6.34555C151.503 6.34555 151.377 6.37697 151.251 6.43979C151.126 6.50262 151.031 6.59686 150.969 6.6911C150.906 6.78534 150.874 6.911 150.874 7.03665V8.48168C150.874 8.5445 150.843 8.60733 150.811 8.67016C150.749 8.73299 150.686 8.73299 150.623 8.73299C150.56 8.73299 150.497 8.70157 150.435 8.67016C150.372 8.60733 150.372 8.5445 150.372 8.48168V6.2199C150.372 6.15707 150.403 6.09424 150.435 6.03142C150.497 5.96859 150.56 5.96859 150.623 5.96859C150.686 5.96859 150.749 6 150.811 6.03142C150.874 6.09424 150.874 6.12566 150.874 6.2199V6.40838C150.969 6.25131 151.094 6.15707 151.283 6.06283C151.44 5.93718 151.628 5.90576 151.817 5.90576Z" fill="#768FB5"/>
<path d="M154.015 8.48172C154.015 8.54455 153.984 8.60738 153.953 8.6702C153.89 8.73303 153.827 8.73303 153.764 8.73303C153.701 8.73303 153.638 8.70162 153.576 8.6702C153.513 8.60738 153.513 8.57596 153.513 8.48172V6.18853C153.513 6.1257 153.544 6.06288 153.576 6.00005C153.638 5.93722 153.701 5.93722 153.764 5.93722C153.827 5.93722 153.89 5.96863 153.953 6.00005C154.015 6.06288 154.015 6.09429 154.015 6.18853V8.48172ZM153.733 5.59167C153.638 5.59167 153.544 5.56026 153.513 5.52884C153.481 5.49743 153.45 5.4346 153.45 5.34036V5.24612C153.45 5.15188 153.481 5.08905 153.513 5.05764C153.576 5.02623 153.638 4.99481 153.733 4.99481C153.827 4.99481 153.921 5.02623 153.953 5.05764C154.015 5.08905 154.015 5.15188 154.015 5.24612V5.34036C154.015 5.4346 153.984 5.49743 153.953 5.52884C153.921 5.56026 153.827 5.59167 153.733 5.59167Z" fill="#768FB5"/>
<path d="M156.874 5.93716C156.937 5.93716 157 5.96858 157.063 5.99999C157.126 6.03141 157.126 6.09423 157.126 6.15706C157.126 6.18847 157.126 6.21989 157.094 6.28271L156.026 8.57591C155.995 8.60732 155.963 8.67015 155.932 8.70156C155.9 8.73298 155.838 8.73298 155.806 8.76439C155.743 8.76439 155.681 8.76439 155.649 8.73298C155.586 8.70156 155.555 8.67015 155.524 8.60732L154.455 6.28271C154.455 6.21989 154.455 6.18847 154.455 6.15706C154.455 6.09423 154.487 6.06282 154.518 5.99999C154.581 5.96858 154.644 5.93716 154.707 5.93716C154.77 5.93716 154.801 5.93716 154.864 5.96858C154.895 5.99999 154.958 6.03141 154.958 6.09423L155.806 7.94763L156.654 6.09423C156.686 5.96858 156.78 5.93716 156.874 5.93716Z" fill="#768FB5"/>
<path d="M160.11 7.25654C160.11 7.31937 160.078 7.38219 160.016 7.41361C159.953 7.44502 159.89 7.47643 159.827 7.47643H157.879C157.911 7.72774 158.005 7.94764 158.194 8.10471C158.382 8.26177 158.602 8.3246 158.853 8.3246C159.042 8.3246 159.167 8.29319 159.293 8.26177C159.419 8.19895 159.513 8.13612 159.576 8.07329C159.639 8.04188 159.67 8.01046 159.733 8.01046C159.796 8.01046 159.859 8.04188 159.89 8.07329C159.921 8.10471 159.953 8.16753 159.953 8.23036C159.953 8.29319 159.921 8.38743 159.827 8.41884C159.733 8.51308 159.576 8.60732 159.387 8.67015C159.199 8.73298 159.042 8.76439 158.853 8.76439C158.539 8.76439 158.288 8.70156 158.068 8.57591C157.848 8.45026 157.66 8.29319 157.534 8.07329C157.408 7.8534 157.345 7.60209 157.345 7.35078C157.345 7.06806 157.408 6.78533 157.534 6.56544C157.66 6.34554 157.817 6.15706 158.037 6.03141C158.256 5.90575 158.476 5.84293 158.728 5.84293C158.979 5.84293 159.199 5.90575 159.387 6.03141C159.607 6.15706 159.764 6.31413 159.89 6.50261C160.047 6.75392 160.11 6.97382 160.11 7.25654ZM158.759 6.34554C158.539 6.34554 158.382 6.40837 158.225 6.50261C158.068 6.59685 157.974 6.78533 157.911 7.00523H159.544V6.97382C159.513 6.78533 159.45 6.62827 159.293 6.50261C159.136 6.40837 158.948 6.34554 158.759 6.34554Z" fill="#768FB5"/>
<mask id="path-13-inside-1_129_155" fill="white">
<path fill-rule="evenodd" clip-rule="evenodd" d="M186.026 12.2775C186.623 12.2775 187.126 11.7749 187.126 11.178C187.126 10.5811 186.623 10.0785 186.026 10.0785C185.429 10.0785 184.927 10.5811 184.927 11.178C184.927 11.7749 185.429 12.2775 186.026 12.2775ZM186.026 11.7434C186.34 11.7434 186.56 11.4921 186.56 11.178C186.56 10.8639 186.309 10.6126 186.026 10.6126C185.743 10.6126 185.492 10.8639 185.492 11.178C185.492 11.4921 185.743 11.7434 186.026 11.7434Z"/>
</mask>
<path fill-rule="evenodd" clip-rule="evenodd" d="M186.026 12.2775C186.623 12.2775 187.126 11.7749 187.126 11.178C187.126 10.5811 186.623 10.0785 186.026 10.0785C185.429 10.0785 184.927 10.5811 184.927 11.178C184.927 11.7749 185.429 12.2775 186.026 12.2775ZM186.026 11.7434C186.34 11.7434 186.56 11.4921 186.56 11.178C186.56 10.8639 186.309 10.6126 186.026 10.6126C185.743 10.6126 185.492 10.8639 185.492 11.178C185.492 11.4921 185.743 11.7434 186.026 11.7434Z" fill="#768FB5"/>
<path d="M186.026 13.2775C187.175 13.2775 188.126 12.3271 188.126 11.178H186.126C186.126 11.1913 186.12 11.2172 186.093 11.2445C186.065 11.2717 186.039 11.2775 186.026 11.2775V13.2775ZM188.126 11.178C188.126 10.0289 187.175 9.07852 186.026 9.07852V11.0785C186.039 11.0785 186.065 11.0843 186.093 11.1115C186.12 11.1388 186.126 11.1646 186.126 11.178H188.126ZM186.026 9.07852C184.877 9.07852 183.927 10.0289 183.927 11.178H185.927C185.927 11.1646 185.932 11.1388 185.96 11.1115C185.987 11.0843 186.013 11.0785 186.026 11.0785V9.07852ZM183.927 11.178C183.927 12.3271 184.877 13.2775 186.026 13.2775V11.2775C186.013 11.2775 185.987 11.2717 185.96 11.2445C185.932 11.2172 185.927 11.1913 185.927 11.178H183.927ZM186.026 12.7434C186.966 12.7434 187.56 11.9675 187.56 11.178H185.56C185.56 11.1016 185.588 10.9957 185.676 10.9002C185.77 10.7987 185.902 10.7434 186.026 10.7434V12.7434ZM187.56 11.178C187.56 10.3489 186.898 9.61255 186.026 9.61255V11.6126C185.867 11.6126 185.748 11.5432 185.678 11.4706C185.606 11.3956 185.56 11.2919 185.56 11.178H187.56ZM186.026 9.61255C185.154 9.61255 184.492 10.3489 184.492 11.178H186.492C186.492 11.2919 186.446 11.3956 186.374 11.4706C186.304 11.5432 186.185 11.6126 186.026 11.6126V9.61255ZM184.492 11.178C184.492 12.0071 185.154 12.7434 186.026 12.7434V10.7434C186.185 10.7434 186.304 10.8128 186.374 10.8854C186.446 10.9604 186.492 11.0641 186.492 11.178H184.492Z" fill="#768FB5" mask="url(#path-13-inside-1_129_155)"/>
<path d="M171.533 11.2657L171.528 11.2707L171.523 11.2763L169.89 13.2543C169.753 13.416 169.749 13.6268 169.815 13.7945C169.88 13.9613 170.025 14.1115 170.221 14.1563C171.274 14.4278 171.991 15.1357 171.991 16.178C171.991 16.8634 171.673 17.4015 171.165 17.773C170.654 18.1471 169.949 18.3526 169.189 18.3526C168.059 18.3526 167.081 17.9254 166.614 17.2291C166.567 17.147 166.603 17.0659 166.668 17.0398L166.68 17.0354L166.69 17.0292C166.765 16.9842 166.865 17.0058 166.924 17.1034L166.923 17.1037L166.931 17.114C167.377 17.7321 168.186 18.0558 169.189 18.0558C169.856 18.0558 170.456 17.885 170.892 17.5586C171.333 17.2295 171.6 16.7461 171.6 16.1466C171.6 15.547 171.332 15.0634 170.888 14.7342C170.447 14.4079 169.84 14.2375 169.157 14.2375H169.094C169.088 14.2375 169.082 14.2357 169.078 14.2337C169.076 14.232 169.073 14.2299 169.071 14.2261L169.061 14.2044L169.043 14.1871L168.987 14.1307C168.905 14.0237 168.92 13.9256 168.981 13.8653L168.981 13.8657L168.99 13.8552L170.56 11.9711C170.828 11.6563 170.608 11.1275 170.162 11.1275H166.833C166.758 11.1275 166.7 11.069 166.7 10.9948C166.7 10.9206 166.758 10.8621 166.833 10.8621H171.356C171.485 10.8621 171.583 10.9752 171.583 11.089V11.1204C171.583 11.1849 171.561 11.2374 171.533 11.2657Z" fill="#768FB5" stroke="#768FB5" stroke-width="0.3"/>
<path fill-rule="evenodd" clip-rule="evenodd" d="M171.921 11.6231L170.288 13.6021C170.288 13.6021 170.288 13.6021 170.288 13.6335C170.288 13.665 170.319 13.665 170.351 13.665C171.544 13.9791 172.518 14.7958 172.518 16.1466C172.518 17.0262 172.11 17.6859 171.482 18.1571C170.853 18.5969 170.036 18.8482 169.188 18.8482C167.932 18.8482 166.801 18.4084 166.173 17.4974C165.921 17.1519 166.11 16.7121 166.424 16.555C166.769 16.3665 167.146 16.555 167.335 16.8063C167.649 17.2461 168.246 17.5288 169.157 17.5288C169.754 17.5288 170.225 17.3718 170.571 17.1205C170.885 16.8691 171.073 16.555 171.073 16.1152C171.073 15.6754 170.885 15.3613 170.571 15.11C170.225 14.8587 169.754 14.7016 169.125 14.7016H169.063C168.874 14.7016 168.717 14.6074 168.623 14.4817L168.56 14.4189C168.34 14.1362 168.34 13.7592 168.591 13.4765L170.162 11.5917H166.832C166.487 11.5917 166.204 11.3089 166.204 10.9634C166.204 10.6178 166.487 10.3351 166.832 10.3351H171.356C171.764 10.3351 172.078 10.6807 172.078 11.0576V11.089C172.078 11.3089 172.016 11.4974 171.921 11.6231ZM170.005 13.3508C169.817 13.5707 169.974 13.9477 170.256 14.0105C171.356 14.2932 172.141 15.0157 172.141 16.1466C172.141 17.6231 170.759 18.4712 169.188 18.4712C168.026 18.4712 166.989 18.0629 166.487 17.2775C166.393 17.1205 166.455 16.9634 166.612 16.8691C166.769 16.7749 166.958 16.8691 167.052 16.9948C167.461 17.5602 168.214 17.8744 169.188 17.8744C170.508 17.8744 171.45 17.2147 171.45 16.1152C171.45 15.0157 170.476 14.3561 169.157 14.3561H169.094H169.063C169 14.3561 168.968 14.3246 168.937 14.2932L168.874 14.2304C168.78 14.1047 168.78 13.8849 168.874 13.7592L170.445 11.8744C170.633 11.6231 170.476 11.2775 170.162 11.2775H166.832C166.675 11.2775 166.55 11.1519 166.55 10.9948C166.55 10.8377 166.675 10.7121 166.832 10.7121H171.356C171.544 10.7121 171.733 10.8691 171.733 11.089V11.1205C171.733 11.2147 171.701 11.2775 171.639 11.3718L170.005 13.3508Z" fill="#768FB5" stroke="#768FB5" stroke-width="0.3" stroke-miterlimit="10"/>
<path d="M174.945 12.7242L174.945 12.7242L174.943 12.7268C174.806 12.9095 174.823 13.1324 174.916 13.2987C175.009 13.464 175.189 13.595 175.408 13.595C176.226 13.595 176.911 13.8448 177.39 14.2681C177.867 14.6901 178.148 15.2926 178.148 16.021C178.148 17.3945 177.012 18.384 175.408 18.384C173.805 18.384 172.668 17.3945 172.668 16.021C172.668 15.4258 172.846 14.9581 173.167 14.5786L173.167 14.5786L173.17 14.5741L175.998 10.9616L176.014 10.9412L176.022 10.9166C176.023 10.9125 176.024 10.9112 176.025 10.9106C176.026 10.9098 176.028 10.9077 176.033 10.9051C176.045 10.8992 176.067 10.8935 176.099 10.8935C176.142 10.8935 176.19 10.9223 176.216 10.9755C176.242 11.0256 176.238 11.0776 176.204 11.1186L176.204 11.1186L176.201 11.1221L174.945 12.7242ZM173.028 15.9895C173.028 16.5944 173.256 17.123 173.675 17.4991C174.092 17.874 174.688 18.0872 175.408 18.0872C176.129 18.0872 176.731 17.8741 177.157 17.5001C177.583 17.1248 177.82 16.5962 177.82 15.9895C177.82 15.3829 177.583 14.8543 177.157 14.479C176.731 14.105 176.129 13.8919 175.408 13.8919C174.703 13.8919 174.108 14.1054 173.687 14.4795C173.265 14.8547 173.028 15.383 173.028 15.9895Z" fill="#768FB5" stroke="#768FB5" stroke-width="0.3"/>
<path fill-rule="evenodd" clip-rule="evenodd" d="M175.345 13.0366L176.571 11.4345C176.916 10.9947 176.602 10.3665 176.068 10.3665C175.879 10.3665 175.691 10.4607 175.565 10.6178L172.738 14.2303C172.361 14.7015 172.141 15.2984 172.141 15.9895C172.141 17.7172 173.586 18.8481 175.408 18.8481C177.23 18.8481 178.675 17.7172 178.675 15.9895C178.675 14.2303 177.23 13.0994 175.408 13.0994C175.377 13.068 175.377 13.068 175.345 13.0366ZM174.026 17.089C174.34 17.3717 174.811 17.5602 175.408 17.5602C176.037 17.5602 176.508 17.3717 176.822 17.089C177.136 16.8062 177.293 16.4293 177.293 15.9581C177.293 15.4869 177.105 15.1099 176.822 14.8272C176.508 14.5445 176.037 14.356 175.408 14.356C174.78 14.356 174.34 14.5445 174.026 14.8272C173.712 15.1099 173.555 15.4869 173.555 15.9581C173.523 16.4293 173.712 16.8377 174.026 17.089ZM175.063 12.8167C174.874 13.068 175.094 13.445 175.408 13.445C177.073 13.445 178.298 14.4816 178.298 15.9581C178.298 17.4345 177.073 18.4712 175.408 18.4712C173.743 18.4712 172.518 17.4345 172.518 15.9581C172.518 15.3612 172.707 14.8586 173.052 14.4188L175.879 10.8062C175.942 10.7434 176.005 10.6806 176.099 10.6806C176.351 10.6806 176.476 10.9633 176.319 11.1518L175.063 12.8167ZM173.178 15.9895C173.178 17.1204 174.057 17.9371 175.408 17.9371C176.79 17.9371 177.67 17.1204 177.67 15.9895C177.67 14.8586 176.79 14.0418 175.408 14.0418C174.026 14.0104 173.178 14.8272 173.178 15.9895Z" fill="#768FB5" stroke="#768FB5" stroke-width="0.3" stroke-miterlimit="10"/>
<path d="M185.436 14.6073C185.436 15.7278 185.129 16.6556 184.57 17.301C184.013 17.9437 183.192 18.3212 182.131 18.3212C181.053 18.3212 180.233 17.9433 179.68 17.3013C179.125 16.6564 178.825 15.7287 178.825 14.6073C178.825 13.4869 179.132 12.5591 179.692 11.9137C180.249 11.271 181.07 10.8935 182.131 10.8935C183.208 10.8935 184.028 11.2713 184.581 11.9133C185.137 12.5583 185.436 13.486 185.436 14.6073ZM179.248 14.6073C179.248 15.6825 179.512 16.5528 180.013 17.1572C180.516 17.7651 181.244 18.0872 182.131 18.0872C183.018 18.0872 183.746 17.7651 184.249 17.1572C184.749 16.5528 185.014 15.6825 185.014 14.6073C185.014 13.5322 184.749 12.6619 184.249 12.0575C183.746 11.4495 183.018 11.1275 182.131 11.1275C181.244 11.1275 180.516 11.4495 180.013 12.0575C179.512 12.6619 179.248 13.5322 179.248 14.6073Z" fill="#768FB5" stroke="#768FB5" stroke-width="0.3"/>
<path fill-rule="evenodd" clip-rule="evenodd" d="M184.958 17.6544C184.298 18.4083 183.325 18.8481 182.131 18.8481C180.937 18.8481 179.963 18.4398 179.304 17.6544C178.644 16.9005 178.33 15.8324 178.33 14.6073C178.33 13.3822 178.644 12.3141 179.304 11.5602C179.963 10.8062 180.937 10.3665 182.131 10.3665C183.325 10.3665 184.298 10.7748 184.958 11.5602C185.618 12.3141 185.932 13.3822 185.932 14.6073C185.932 15.8324 185.618 16.9005 184.958 17.6544ZM180.403 16.8062C180.78 17.2774 181.377 17.5602 182.131 17.5602C182.885 17.5602 183.482 17.2774 183.859 16.8062C184.267 16.335 184.487 15.5811 184.487 14.6073C184.487 13.6335 184.236 12.8795 183.859 12.4083C183.482 11.9371 182.885 11.6544 182.131 11.6544C181.377 11.6544 180.78 11.9371 180.403 12.4083C179.995 12.8795 179.775 13.6335 179.775 14.6073C179.775 15.5811 179.995 16.335 180.403 16.8062ZM185.555 14.6073C185.555 16.9319 184.33 18.4712 182.099 18.4712C179.901 18.4712 178.644 16.9005 178.644 14.6073C178.644 12.3141 179.869 10.7434 182.099 10.7434C184.33 10.7434 185.555 12.2827 185.555 14.6073ZM179.398 14.6073C179.398 16.712 180.435 17.9371 182.131 17.9371C183.827 17.9371 184.864 16.712 184.864 14.6073C184.864 12.5026 183.827 11.2775 182.131 11.2775C180.403 11.2775 179.398 12.5026 179.398 14.6073Z" fill="#768FB5" stroke="#768FB5" stroke-width="0.3" stroke-miterlimit="10"/>
<path fill-rule="evenodd" clip-rule="evenodd" d="M130.393 12.1885C130.11 12.1885 129.482 13.2566 129.482 13.2566C129.482 13.2566 130.832 14.199 130.958 14.2932C131.555 14.733 132.152 15.2042 132.717 15.7069C133.471 16.398 134.256 17.1205 134.696 18.0629C134.822 18.3456 134.916 18.6283 134.948 18.9425C134.948 18.8482 134.979 18.6912 134.979 18.5969C134.979 18.3142 135.01 18.0001 134.979 17.7173C134.948 17.1833 134.822 16.6179 134.539 16.1467C134.382 15.8639 134.194 15.6126 133.974 15.3927C133.408 14.7645 132.749 14.1676 132.12 13.6021C131.775 13.288 131.429 13.0053 131.084 12.7226C130.895 12.5655 130.675 12.3456 130.424 12.22C130.424 12.1885 130.393 12.1885 130.393 12.1885Z" fill="#DBE1EA"/>
<path fill-rule="evenodd" clip-rule="evenodd" d="M134.037 5.24609C134.037 5.52882 134.005 5.84295 134.037 6.12567C134.068 6.65971 134.225 7.22515 134.476 7.69635C134.634 7.97908 134.822 8.19897 135.042 8.45028C135.607 9.07855 136.236 9.644 136.864 10.2094C137.209 10.4922 137.524 10.8063 137.869 11.089C138.058 11.2461 138.278 11.466 138.529 11.5916C138.78 11.7173 139.471 10.555 139.471 10.555C139.471 10.555 138.152 9.61258 138.026 9.54976C137.429 9.10997 136.832 8.63876 136.298 8.13614C135.545 7.44505 134.791 6.72253 134.351 5.78012C134.225 5.4974 134.131 5.21468 134.099 4.90054C134.099 5.0262 134.068 5.15185 134.037 5.24609Z" fill="#DBE1EA"/>
<path d="M134.065 19.4461C134.251 20.0032 134.302 20.7306 134.148 21.2907C133.855 20.2575 133.03 19.5632 132.378 19.0296C131.729 18.4789 131.052 17.9952 130.347 17.5468L130.337 17.5404L130.326 17.5345C130.142 17.4292 129.953 17.2956 129.788 17.1597C129.745 17.1154 129.705 17.0692 129.659 17.0168C129.655 17.0121 129.651 17.0073 129.647 17.0023C129.602 16.951 129.547 16.8869 129.49 16.8297L129.464 16.8046L129.436 16.7833C129.423 16.7737 129.411 16.7649 129.4 16.7567C129.324 16.6998 129.288 16.6722 129.26 16.6452C129.267 16.6133 129.275 16.5796 129.288 16.5299C129.291 16.5191 129.294 16.5076 129.297 16.4952C129.314 16.43 129.337 16.3377 129.349 16.24L129.352 16.2216L129.353 16.203C129.369 15.8826 129.377 15.5633 129.384 15.2511L129.385 15.2481C129.388 15.1122 129.391 14.9775 129.395 14.8438C129.565 14.9763 129.735 15.1059 129.903 15.234C130.049 15.3455 130.193 15.4559 130.335 15.566C130.557 15.7424 130.781 15.9158 131.004 16.0882C131.719 16.6422 132.421 17.1863 133.023 17.7881C133.152 17.9169 133.221 17.9872 133.291 18.0801L133.301 18.0932L133.311 18.1055C133.645 18.4948 133.896 18.9402 134.065 19.4461ZM129.253 16.6949C129.253 16.6949 129.253 16.694 129.253 16.6921C129.253 16.6939 129.253 16.6948 129.253 16.6949Z" fill="#BECDE3" stroke="#BECDE3"/>
<path fill-rule="evenodd" clip-rule="evenodd" d="M131.681 4.7749C131.304 4.80632 130.989 5.15187 130.77 5.43459C130.644 5.59166 130.518 5.78014 130.361 5.96862C129.701 6.87961 128.885 7.66495 128.256 8.57595C128.068 8.82726 127.911 9.07857 127.754 9.32988C126.654 11.0576 126.466 13.7592 127.565 15.5498C127.785 15.9267 128.068 16.3351 128.382 16.6492C128.696 16.9634 129.105 17.1519 129.356 17.4974C128.916 16.5864 129.01 15.5498 129.325 14.6388C129.67 13.7278 130.204 12.911 130.832 12.1885C131.461 11.4974 132.277 10.9948 132.843 10.2409C133.22 9.73825 133.534 9.10998 133.66 8.48171C133.785 7.79061 133.691 7.09951 133.471 6.47124C133.314 6.09427 133.126 5.74872 132.843 5.43459C132.56 5.15187 132.152 4.7749 131.743 4.7749C131.743 4.7749 131.712 4.7749 131.681 4.7749Z" fill="#F5F6F8"/>
<path d="M135.108 4.55393C134.935 4.03378 134.878 3.36526 134.997 2.82301C135.316 3.79387 136.105 4.45665 136.732 4.97041C137.377 5.51826 138.051 5.99975 138.752 6.44622C138.839 6.50821 138.929 6.56721 139.008 6.61944C139.033 6.63614 139.057 6.65214 139.08 6.66733C139.175 6.73068 139.254 6.78535 139.322 6.84097C139.365 6.88504 139.406 6.93107 139.451 6.98322C139.455 6.98792 139.459 6.99275 139.463 6.9977C139.508 7.04904 139.563 7.11312 139.62 7.17031L139.646 7.19543L139.674 7.21675C139.687 7.2263 139.699 7.23514 139.71 7.24337C139.786 7.30027 139.822 7.32785 139.85 7.35485C139.843 7.38669 139.835 7.42043 139.822 7.47009C139.819 7.48088 139.816 7.49242 139.813 7.50486C139.796 7.57005 139.773 7.66228 139.761 7.75997L139.758 7.77844L139.757 7.79702C139.741 8.11738 139.733 8.43671 139.726 8.74884L139.726 8.7519C139.723 8.87166 139.72 8.99035 139.716 9.10835C139.567 8.99245 139.418 8.87866 139.27 8.76603C139.124 8.65451 138.979 8.54412 138.838 8.43396C138.615 8.25758 138.392 8.0842 138.169 7.91178C137.454 7.35778 136.751 6.81374 136.15 6.21189C136.021 6.08311 135.952 6.01281 135.882 5.9199L135.872 5.90687L135.862 5.8945C135.528 5.50525 135.277 5.05983 135.108 4.55393ZM139.857 7.30515C139.857 7.30511 139.857 7.306 139.857 7.30792C139.857 7.30615 139.857 7.30519 139.857 7.30515Z" fill="#BECDE3" stroke="#BECDE3"/>
<path fill-rule="evenodd" clip-rule="evenodd" d="M139.785 9.36128C139.44 10.2723 138.906 11.089 138.277 11.8115C137.649 12.5026 136.832 13.0053 136.267 13.7592C135.89 14.2618 135.576 14.8901 135.45 15.5184C135.325 16.2095 135.419 16.9006 135.639 17.5288C135.796 17.9058 135.984 18.2513 136.267 18.5655C136.55 18.8482 137.021 19.2566 137.461 19.2252C137.838 19.1623 138.12 18.8482 138.34 18.5341C138.466 18.377 138.592 18.1885 138.749 18C139.408 17.1204 140.225 16.3037 140.853 15.3927C141.042 15.1414 141.199 14.8901 141.387 14.6074C142.487 12.8482 142.675 10.178 141.576 8.38746C141.325 8.0105 141.073 7.60212 140.728 7.28799C140.414 6.97385 140.005 6.78537 139.754 6.43982C140.194 7.38223 140.131 8.45029 139.785 9.36128Z" fill="#F5F6F8"/>
</svg>
