<svg width="26" height="26" viewBox="0 0 26 26" fill="none" xmlns="http://www.w3.org/2000/svg">
<g clip-path="url(#clip0_1_16815)">
<path d="M0 13C0 5.8203 5.8203 0 13 0C20.1797 0 26 5.8203 26 13C26 20.1797 20.1797 26 13 26C5.8203 26 0 20.1797 0 13Z" fill="#111928"/>
<path d="M16.75 20.5H9.25C6.25 20.5 5.5 19.75 5.5 16.75V15.25C5.5 12.25 6.25 11.5 9.25 11.5H16.75C19.75 11.5 20.5 12.25 20.5 15.25V16.75C20.5 19.75 19.75 20.5 16.75 20.5Z" stroke="#4B5563" stroke-width="1.5" stroke-linecap="round" stroke-linejoin="round"/>
<path d="M8.5 11.5V10C8.5 7.5175 9.25 5.5 13 5.5C16.375 5.5 17.5 7 17.5 9.25" stroke="#4B5563" stroke-width="1.5" stroke-linecap="round" stroke-linejoin="round"/>
<path d="M13 17.875C14.0355 17.875 14.875 17.0355 14.875 16C14.875 14.9645 14.0355 14.125 13 14.125C11.9645 14.125 11.125 14.9645 11.125 16C11.125 17.0355 11.9645 17.875 13 17.875Z" stroke="#4B5563" stroke-width="1.5" stroke-linecap="round" stroke-linejoin="round"/>
</g>
<defs>
<clipPath id="clip0_1_16815">
<path d="M0 13C0 5.8203 5.8203 0 13 0C20.1797 0 26 5.8203 26 13C26 20.1797 20.1797 26 13 26C5.8203 26 0 20.1797 0 13Z" fill="white"/>
</clipPath>
</defs>
</svg>
